<?xml version="1.0" encoding="UTF-8"?>
<!DOCTYPE svg PUBLIC "-//W3C//DTD SVG 1.1//EN" "http://www.w3.org/Graphics/SVG/1.1/DTD/svg11.dtd">
<!-- Creator: CorelDRAW 2020 (64 Bit) -->
<svg xmlns="http://www.w3.org/2000/svg" xml:space="preserve" width="210mm" height="97mm" version="1.1" style="shape-rendering:geometricPrecision; text-rendering:geometricPrecision; image-rendering:optimizeQuality; fill-rule:evenodd; clip-rule:evenodd"
viewBox="0 0 21000 9700"
 xmlns:xlink="http://www.w3.org/1999/xlink"
 xmlns:xodm="http://www.corel.com/coreldraw/odm/2003">
 <defs>
  <style type="text/css">
   <![CDATA[
    .fil1 {fill:#020202}
    .fil0 {fill:#FEFEFE}
   ]]>
  </style>
 </defs>
 <g id="Camada_x0020_1">
  <metadata id="CorelCorpID_0Corel-Layer"/>
  <g id="_2065140790256">
   <polygon class="fil0" points="8665.85,7610.92 14181,7610.92 14181,4062.85 8665.85,4062.85 "/>
   <path class="fil1" d="M14041.88 6342.44l-32.02 -30.69c-53.81,-69.8 -2.2,-65.4 -8.45,-169.27 -4.02,-66.79 -28.73,-183.22 -36.35,-266.99l4.65 -508.87c0.26,-164.56 -30.96,-659.64 -19,-803.12 6.69,-80.02 109.89,-378.57 -136.23,-366.81 -65.31,3.13 -32.87,20.2 -127.13,10.77 -50.18,-5.01 -70.65,-15.41 -130.78,-18.26 -175.33,-8.27 -364.56,24.69 -552.14,24.63 -373.27,-0.13 -754.08,-13.75 -1122.14,-22.28l-1084.62 -50.12c-368.34,-41.16 -733.49,-10.94 -1102.31,-9.03 -195.72,1 -374.92,7.01 -570.17,1.35 -148.58,-4.32 -342.98,42.6 -403.82,169.47 -49.74,103.7 62.88,861.84 75.65,1027.34 14.53,188.12 22.78,360.96 22.39,552.6l-39.85 537.99c-19.02,100.92 -7.86,1017 38.54,1055.06 85.88,70.42 402.96,1.28 522.55,11.16 188.49,15.57 339.73,4.69 526.31,-12.44 370.93,-34.05 776.16,13.66 1120.36,-29.16 99.72,-12.4 123.17,21.76 251.83,12.14 389.18,-29.1 377.13,37.02 532.84,36.3 113.12,-0.54 176.85,-8.21 289.82,13.09 142.77,26.95 347.16,-25.94 519.75,-23.81 92.5,1.15 183.31,3.04 275.96,1.25 122.7,-2.34 169.03,15.77 274.89,22.11 167.88,10.07 615.22,26.21 754.09,-24.6 113.26,-41.43 64.65,-60.58 140.01,-154.82 176.68,-220.93 -105.89,-746.58 15.37,-984.99z"/>
   <path class="fil0" d="M8904.48 4341.3c-38.85,250.88 79.21,827.67 95.49,1081.52l1.09 760.22c-39.15,155.4 -37.76,180.41 -24.97,346.43 15.28,198.66 -19.63,603.96 32.09,771.54 4.45,2.97 11.7,0.95 14.31,7.31l28.83 12.42c97.06,29.21 431.75,13.47 530.63,9.8l1804.71 -30.16c345.01,1.47 2275.18,43.68 2426.67,-38.98 99.51,-148.43 8.62,-729.67 -8.25,-928l7.23 -1002.17c-5.21,-130.95 24.95,-919.05 -25.9,-965.98 -67.1,-61.92 -859.13,-29.35 -1002.59,-23.6 -647.46,25.93 -1341.98,-55.02 -1985.47,-59.82 -164.61,-1.21 -330.63,-10.57 -496.35,-16.96 -415.69,-16 -282.68,20.44 -479.73,31.23 -93.8,5.14 -128.8,-7.06 -219.86,-2.22l-697.93 47.42z"/>
   <path class="fil1" d="M10038.34 4695.34l-160.81 25.81 0 113.93 143.42 33.51c30.96,288.91 -118.99,226.73 -255.37,385.84 -104.74,122.2 -203.04,207.43 -318.4,325 -182.09,185.59 -125.14,179.05 -135.78,505.64 -6.83,209.92 6.87,440.36 -4.03,642.93 -11.14,206.94 -22.87,301.98 315.01,291.56 205.82,-6.36 414.64,-12.16 624.47,-17.59 688.66,-17.82 1682.23,60.3 2389.91,61.93 214.33,0.17 629.49,36.74 789.06,-23.75 28.83,-110.33 -23.39,-415.46 -19.29,-587.41 5.11,-213.81 13.08,-436.57 4.24,-649.81 -143.42,-125.85 -236.24,-262.38 -378.33,-407.41 -71.72,-73.19 -128.83,-107.09 -204.43,-181.74 -98.62,-97.4 -127.65,-105.63 -120.77,-286.89 4.15,-3.19 11.53,-11.34 13.96,-7.19 2.82,4.89 16,-7.9 27.84,-12.9 82.83,-34.85 87.18,-20.65 94.08,-134.9 -205.97,-84.12 -108.35,19.82 -160.87,-222.71 -171.99,-48.23 -145.22,36.24 -159.64,170.84l-122.03 23.49 -3.95 128.28 139.51 23.58c20.5,213.55 22.56,155.9 -193.03,454.65 -58.56,81.17 -253.2,324.94 -331.41,346.33l-287.66 -371.32c-108.19,-137.88 -266.16,-180.02 -261.16,-399.96l104.7 -34.67c-4.37,-125.98 -12.66,-94.19 -103.03,-147.35l-15.68 -125.63 -98.9 -6.4c-37.37,51.37 -29.96,76.75 -40.78,146.41l-139.77 22.25 -3.88 110.37c32.57,18.02 256.41,13.05 103.33,194.36 -61.08,72.32 -95.23,161.02 -159.22,227.42 -71.76,74.5 -138.18,127.8 -192.16,193.73 -62.54,76.34 -91.57,154.25 -192.64,192.14 -110.61,-64.54 -222.26,-196.1 -297,-308.16 -121.35,-181.95 -251.5,-206.1 -252.33,-407.51 -0.65,-161.33 29.67,-92.83 120.1,-152.21l5.97 -86.66 -91.11 -50.72c-5.71,-132.3 21.89,-200.28 -143.02,-164.35l-29.12 167.24z"/>
   <path class="fil0" d="M9835.08 6870.13c10.8,-108.72 -12,-255.32 22.02,-345.74 53.87,-60.6 158.7,-59.95 226.93,-41.19 106.98,69.96 81.2,246.62 84.35,381.31 106.87,5.12 200.35,-11.12 302.01,-23.56 139.7,-17.07 134.19,-47.12 144.98,-186.02 16.13,-207.84 30.64,-429.31 30.18,-644.21 -0.52,-229.57 -571.38,-764.24 -572.53,-764.56 -93.98,-25.95 -301.64,218.56 -355.4,291.69 -95.8,130.22 -211.53,206.63 -228.38,436.92 -8.52,116.1 -33.31,178.26 -30.77,293.56 9.79,440.93 -115.3,676.19 376.61,601.8z"/>
   <path class="fil0" d="M10798.37 6832.31c102.14,49.5 256.65,47.59 376.55,32.37 27.81,-103.03 -3.85,-253.7 49.98,-333.75 69.38,-60.28 186.93,-22.74 285.66,-15.64l14.92 342.1c102.2,35.3 264.96,10.59 368.82,-9.49 90.82,-146.7 58.47,-866.99 -5.06,-1007.02 -70.92,-156.33 -396.38,-625.95 -496.76,-612.31 -47.03,6.38 -471.74,522.09 -520.4,598.92 -98.36,155.33 -119.68,818.34 -73.71,1004.82z"/>
   <path class="fil0" d="M12526.67 6857.1c4.95,-89.15 -19.76,-250.13 21.95,-308.02 49.75,-56.37 199.29,-56.32 272.01,-22.8 68.83,106.55 13.76,271.48 73.5,383.63 91.86,12.48 234.71,6.69 311.99,-34.35 11.49,-11.99 91.18,-871.57 -19.67,-1046.29 -25.08,-39.54 -77.1,-69.88 -165.15,-202 -46.73,-70.16 -263.6,-325.87 -408.01,-334.58 -82.6,103.96 -194.25,226.6 -281.97,339.88 -93.3,120.46 -223.02,195.44 -235.52,414.72l7.86 626.86c18.47,208.08 69.87,231.76 423.01,182.95z"/>
  </g>
 </g>
</svg>
